<svg id="visual" viewBox="0 0 2000 300" width="2000" height="300" xmlns="http://www.w3.org/2000/svg" xmlns:xlink="http://www.w3.org/1999/xlink" version="1.1"><path d="M0 37L55.5 54.7C111 72.3 222 107.7 333.2 124C444.3 140.3 555.7 137.7 666.8 124.8C778 112 889 89 1000 90.8C1111 92.7 1222 119.3 1333.2 128C1444.3 136.7 1555.7 127.3 1666.8 109.5C1778 91.7 1889 65.3 1944.5 52.2L2000 39L2000 0L1944.5 0C1889 0 1778 0 1666.8 0C1555.7 0 1444.3 0 1333.2 0C1222 0 1111 0 1000 0C889 0 778 0 666.8 0C555.7 0 444.3 0 333.2 0C222 0 111 0 55.5 0L0 0Z" fill="#ffffff" stroke-linecap="round" stroke-linejoin="miter"></path></svg>